<svg id="visual" viewBox="0 0 1920 1080" width="1920" height="1080" xmlns="http://www.w3.org/2000/svg" xmlns:xlink="http://www.w3.org/1999/xlink" version="1.1"><path d="M0 120L45.7 136.2C91.3 152.3 182.7 184.7 274.2 184.7C365.7 184.7 457.3 152.3 548.8 139.7C640.3 127 731.7 134 823 144.8C914.3 155.7 1005.7 170.3 1097 159.7C1188.3 149 1279.7 113 1371.2 107.5C1462.7 102 1554.3 127 1645.8 137.7C1737.3 148.3 1828.7 144.7 1874.3 142.8L1920 141L1920 0L1874.3 0C1828.7 0 1737.3 0 1645.8 0C1554.3 0 1462.7 0 1371.2 0C1279.7 0 1188.3 0 1097 0C1005.7 0 914.3 0 823 0C731.7 0 640.3 0 548.8 0C457.3 0 365.7 0 274.2 0C182.7 0 91.3 0 45.7 0L0 0Z" fill="#36b796"></path><path d="M0 239L45.7 255.2C91.3 271.3 182.7 303.7 274.2 298.2C365.7 292.7 457.3 249.3 548.8 225.8C640.3 202.3 731.7 198.7 823 213.2C914.3 227.7 1005.7 260.3 1097 251.3C1188.3 242.3 1279.7 191.7 1371.2 188C1462.7 184.3 1554.3 227.7 1645.8 238.5C1737.3 249.3 1828.7 227.7 1874.3 216.8L1920 206L1920 139L1874.3 140.8C1828.7 142.7 1737.3 146.3 1645.8 135.7C1554.3 125 1462.7 100 1371.2 105.5C1279.7 111 1188.3 147 1097 157.7C1005.7 168.3 914.3 153.7 823 142.8C731.7 132 640.3 125 548.8 137.7C457.3 150.3 365.7 182.7 274.2 182.7C182.7 182.7 91.3 150.3 45.7 134.2L0 118Z" fill="#29ab8a"></path><path d="M0 303L45.7 339C91.3 375 182.7 447 274.2 454.3C365.7 461.7 457.3 404.3 548.8 364.8C640.3 325.3 731.7 303.7 823 307.2C914.3 310.7 1005.7 339.3 1097 333.8C1188.3 328.3 1279.7 288.7 1371.2 292.3C1462.7 296 1554.3 343 1645.8 361C1737.3 379 1828.7 368 1874.3 362.5L1920 357L1920 204L1874.3 214.8C1828.7 225.7 1737.3 247.3 1645.8 236.5C1554.3 225.7 1462.7 182.3 1371.2 186C1279.7 189.7 1188.3 240.3 1097 249.3C1005.7 258.3 914.3 225.7 823 211.2C731.7 196.7 640.3 200.3 548.8 223.8C457.3 247.3 365.7 290.7 274.2 296.2C182.7 301.7 91.3 269.3 45.7 253.2L0 237Z" fill="#19a07e"></path><path d="M0 379L45.7 413.2C91.3 447.3 182.7 515.7 274.2 530C365.7 544.3 457.3 504.7 548.8 474.2C640.3 443.7 731.7 422.3 823 422.3C914.3 422.3 1005.7 443.7 1097 436.3C1188.3 429 1279.7 393 1371.2 393C1462.7 393 1554.3 429 1645.8 441.7C1737.3 454.3 1828.7 443.7 1874.3 438.3L1920 433L1920 355L1874.3 360.5C1828.7 366 1737.3 377 1645.8 359C1554.3 341 1462.7 294 1371.2 290.3C1279.7 286.7 1188.3 326.3 1097 331.8C1005.7 337.3 914.3 308.7 823 305.2C731.7 301.7 640.3 323.3 548.8 362.8C457.3 402.3 365.7 459.7 274.2 452.3C182.7 445 91.3 373 45.7 337L0 301Z" fill="#009473"></path><path d="M0 606L45.7 640.2C91.3 674.3 182.7 742.7 274.2 740.8C365.7 739 457.3 667 548.8 663.3C640.3 659.7 731.7 724.3 823 746C914.3 767.7 1005.7 746.3 1097 723C1188.3 699.7 1279.7 674.3 1371.2 661.7C1462.7 649 1554.3 649 1645.8 665.2C1737.3 681.3 1828.7 713.7 1874.3 729.8L1920 746L1920 431L1874.3 436.3C1828.7 441.7 1737.3 452.3 1645.8 439.7C1554.3 427 1462.7 391 1371.2 391C1279.7 391 1188.3 427 1097 434.3C1005.7 441.7 914.3 420.3 823 420.3C731.7 420.3 640.3 441.7 548.8 472.2C457.3 502.7 365.7 542.3 274.2 528C182.7 513.7 91.3 445.3 45.7 411.2L0 377Z" fill="#008669"></path><path d="M0 660L45.7 696C91.3 732 182.7 804 274.2 816.5C365.7 829 457.3 782 548.8 792.8C640.3 803.7 731.7 872.3 823 886.8C914.3 901.3 1005.7 861.7 1097 832.8C1188.3 804 1279.7 786 1371.2 771.5C1462.7 757 1554.3 746 1645.8 755C1737.3 764 1828.7 793 1874.3 807.5L1920 822L1920 744L1874.3 727.8C1828.7 711.7 1737.3 679.3 1645.8 663.2C1554.3 647 1462.7 647 1371.2 659.7C1279.7 672.3 1188.3 697.7 1097 721C1005.7 744.3 914.3 765.7 823 744C731.7 722.3 640.3 657.7 548.8 661.3C457.3 665 365.7 737 274.2 738.8C182.7 740.7 91.3 672.3 45.7 638.2L0 604Z" fill="#00795f"></path><path d="M0 1081L45.7 1081C91.3 1081 182.7 1081 274.2 1081C365.7 1081 457.3 1081 548.8 1081C640.3 1081 731.7 1081 823 1081C914.3 1081 1005.7 1081 1097 1081C1188.3 1081 1279.7 1081 1371.2 1081C1462.7 1081 1554.3 1081 1645.8 1081C1737.3 1081 1828.7 1081 1874.3 1081L1920 1081L1920 820L1874.3 805.5C1828.7 791 1737.3 762 1645.8 753C1554.3 744 1462.7 755 1371.2 769.5C1279.7 784 1188.3 802 1097 830.8C1005.7 859.7 914.3 899.3 823 884.8C731.7 870.3 640.3 801.7 548.8 790.8C457.3 780 365.7 827 274.2 814.5C182.7 802 91.3 730 45.7 694L0 658Z" fill="#006c55"></path></svg>